<svg id="Capa_1" enable-background="new 0 0 512.422 512.422" height="512" viewBox="0 0 512.422 512.422" width="512" xmlns="http://www.w3.org/2000/svg"><g><path d="m421.211 300.005h-330v-39.155l165-20.845 165 20.845z" fill="#b57a6a"/><path d="m421.211 300.005h-165v-60l165 .845z" fill="#8d5b4a"/><path d="m91.211 338.429v143.994l165 29.999 165-29.999v-143.994l-165-38.424z" fill="#8d5b4a"/><path d="m421.211 351.434-165-51.429v212.417l165-29.999z" fill="#7d4d3e"/><path d="m303.061 13.106c-12.938-12.937-33.913-12.937-46.85 0l-2.614.214-3.616-3.617c-12.937-12.937-33.913-12.937-46.85 0-12.938 12.937-12.938 33.913 0 46.85l50.466 46.706 48.172-48.973c12.938-12.938 14.229-28.243 1.292-41.18z" fill="#f69"/><path d="m304.063 9.703c-12.937-12.937-33.913-12.937-46.85 0l-3.616 3.617v89.939l50.466-46.706c12.937-12.938 12.937-33.913 0-46.85z" fill="#e6455f"/><path d="m211.211 375.005-165-30 45-75 165 30z" fill="#f0cfa3"/><path d="m211.211 165.005-165 30 45 75 165-30z" fill="#f0cfa3"/><g fill="#edb986"><path d="m301.211 165.005 165 30-45 75-165-30z"/><path d="m301.211 375.005 165-30-45-75-165 30z"/></g></g></svg>